# xmcd
#
# Track frame offsets:
#	150
#	17747
#	33845
#	51332
#	70075
#	84184
#	101180
#	118460
#	133622
#	154378
#	169885
#	188354
#
# Disc length: 2726 seconds
# Revision: 10
# Processed by: cddbd v1.5.2PL0 Copyright (c) Steve Scherf et al.
# Submitted via: dBpowerAMP V12.0
#
DISCID=9e0aa40c
DTITLE=Seal - Soul (2008 EU)
DYEAR=2008
DGENRE=Pop
TTITLE0=A change is gonna come
TTITLE1=I can't stand the rain
TTITLE2=It's a man's man's man's world
TTITLE3=Here I am (Come and take me)
TTITLE4=I've been loving you too long
TTITLE5=It's alright
TTITLE6=If you don't know me by now
TTITLE7=Knock on wood
TTITLE8=I'm still in love with you
TTITLE9=Free
TTITLE10=Stand by me
TTITLE11=People get ready
EXTD=
EXTT0=
EXTT1=
EXTT2=
EXTT3=
EXTT4=
EXTT5=
EXTT6=
EXTT7=
EXTT8=
EXTT9=
EXTT10=
EXTT11=
PLAYORDER=
